<?xml version="1.0" encoding="utf-8"?>
<!-- Generator: Adobe Illustrator 25.2.1, SVG Export Plug-In . SVG Version: 6.00 Build 0)  -->
<svg version="1.1" id="Layer_1" xmlns="http://www.w3.org/2000/svg" xmlns:xlink="http://www.w3.org/1999/xlink" x="0px" y="0px"
	 viewBox="0 0 5781.1 1318.3" style="enable-background:new 0 0 5781.1 1318.3;" xml:space="preserve">
<style type="text/css">
	.st0{fill:#F8B4C6;}
	.st1{fill:#F7B8C9;}
	.st2{opacity:0.1;fill:#212120;}
	.st3{fill:#212120;}
	.st4{fill:#F49CC3;}
	.st5{fill:none;stroke:#212120;stroke-width:1.3;stroke-linecap:round;stroke-linejoin:round;stroke-miterlimit:10;}
	.st6{fill:#EE8F9B;}
	.st7{fill:#231F20;}
</style>
<g>
	<path class="st0" d="M656.1,1374.8c-3.2,0-3.2,5,0,5S659.3,1374.8,656.1,1374.8z"/>
	<path class="st0" d="M656.1,1374.8c-3.2,0-3.2,5,0,5S659.3,1374.8,656.1,1374.8z"/>
	<path class="st0" d="M534.8,60.7c0.7-0.2,1.3-0.4,2-0.5C537.5,60,537.2,60,534.8,60.7z"/>
	<path class="st0" d="M534.8,60.7c0.7-0.2,1.3-0.4,2-0.5C537.5,60,537.2,60,534.8,60.7z"/>
	<path class="st0" d="M1571.3,454.8c-1.7-26.5-3.4-53-5.1-79.5c-1.7-25.8-2.7-51.9-8.6-77.2c-5.8-25-17.4-47.7-34.5-66.8
		c-15.2-16.9-34.6-30.5-54.5-41.3c-44.7-24.4-95.7-40.1-146.9-40.4c-35.6-0.2-72.2,7.7-104.2,24.1c-3.6-2-7.2-4.2-10.6-6.5
		c-6.4-4.1-12.6-8.6-19.1-12.5c-10.8-6.5-22.1-12.3-33.1-18.3c-11.8-6.5-23.8-12.8-36.1-18.3c-4.2-1.9-8.5-3.7-12.7-5.5
		c-0.6-0.3-2-0.6-2.9-0.9c0.4,0.1,1.1,0.3,2,0.5c-1-0.2-2.4-1.1-3.3-1.5c-8-3.5-16-6.9-24.1-10.2c-12.1-4.9-24.5-9.3-36.9-13.3
		c-25.9-8.5-52.3-15.7-79-21.5c-31.3-6.8-62.7-12.7-94-19.3c-3.5-0.7-7.2-0.8-10.7-0.2c-0.7-4.7-1.5-9.3-2.5-13.9
		c-0.7-3.2-1.6-6.5-2.6-9.6c-3.1-9.9-9.1-17.5-19.7-20.2C822,0.1,810,0.6,800.1,4.3c-4.8,1.8-9.4,3.8-13.6,6.8c-2,1.5-4,3-5.9,4.5
		c-5.8-6.2-12.9-10.9-21.5-12.8c-18.7-4.1-39.3,2.1-52.6,15.9c-1.3,1.3-2.4,2.7-3.6,4.1c-10.4-12.5-25.8-20.5-42.3-20.7
		c-22.4-0.2-41.9,14.2-49.8,34.7c-1.2,3.1-2,6.2-2.5,9.5c-18,2.8-36,6.2-53.8,10c-4.7,1-9.4,2.1-14.1,3.1c-1.2,0.3-2.3,0.5-3.5,0.8
		c-1.1,0.4-4.8,1.7-7,2.6c-4.1,0.5-8.6,2.2-12.4,3.3c-4.5,1.3-9,2.8-13.5,4.3c-8.6,2.9-17.4,5.4-26,8.4c-2.6,0.9-6.6,2.3-9.3,4.2
		c-0.6,0.2-1.2,0.4-1.5,0.5c-4.5,1.3-9,2.8-13.5,4.5c-18.6,7-36.1,16-53.4,25.6c-3.9,2.2-7.7,4.3-11.6,6.5c-1.8,1-3.7,2-5.4,3
		c-2.3,1.4-4.6,2.9-6.6,4.7c-0.1,0.1-0.4,0.4-0.8,0.7c-1.2,0.7-3,1.9-3.4,2.1c-1.6,1-3.2,2-4.7,3c-0.3,0.2-0.5,0.4-0.8,0.5
		c-37.4-33-87.4-48.2-137.2-48.3c-25.8-0.1-52.6,3.2-77.4,10.6c-25.4,7.6-50.3,20.7-67.3,41.5c-17.7,21.7-27.4,47.5-36.9,73.5
		c-9.7,26.4-19.3,52.8-29,79.2c-9.5,26-21.4,53.6-18.7,81.9c1.4,14.1,5,28.3,13.1,40.2c9.3,13.6,22.1,22.8,37.6,28.2
		c26.8,9.2,58.8,4.3,85.9-1.2c3.7-0.8,7.5-1.6,11.2-2.5c-4.5,8.1-8.8,16.2-12.9,24.4c-2.2,4.3-4,8.7-6.3,13c-2.6,4.9-6,9.2-8.4,14.2
		c-2.3,4.8-4.1,10-6.7,14.7c-2.5,4.6-6,8.8-8.8,13.3c-6.2,10.1-10.5,21.2-15.1,32.1c-4.2,10.1-8.3,20.3-11.8,30.7
		C63,624.4,60.5,673.2,60.5,720c0,47.2,5.5,94.8,18.7,140.2c0.4,1.2,0.7,2.5,1.1,3.7c0,0.1,0,0.2,0.1,0.3c0.1,0.5,0.1,0.9,0.2,1.1
		c0.3,2.7,0.7,5.8,1.2,8.6c1,5.4,3,10.7,4.7,15.9c3.5,11.1,7.2,22.1,10.7,33.2c6.6,20.9,15.9,41.4,25.4,61.1
		c18.1,37.7,40.5,72.8,66.5,105.4c25.6,32.1,55.2,60.5,86.9,86.5c33.8,27.7,69.7,51.3,110.3,67.7c4.5,1.8,9.1,3.5,13.7,5.1
		c1.4,0.5,2.9,1,4.3,1.4c0.1,0,0.2,0.1,0.4,0.1c0.2,0.2,0.5,0.4,0.7,0.5c2.3,1.5,5,2.3,7.5,3.3c10.8,4.3,22.2,7.4,33.3,10.7
		c21.7,6.5,43.6,12.3,65.7,17.6c39.8,9.4,80.2,17.4,120.7,22.6c19.3,2.5,38.6,4.9,57.9,7.3c16.8,2.1,33.9,2.4,50.8,3.1
		c23.8,1.1,47.6,2.4,71.5,2.5c46.7,0.1,93.2-1.2,139.7-6.6c47.4-5.6,93.4-15.5,139.8-26.1c21.5-4.9,42.7-14.3,62.5-24
		c19.2-9.4,37.5-20.3,55.4-32.1c9.9-6.5,20.4-12.7,28.7-21.1c3.5-3.6,7.4-6.7,11.2-9.9c0.1-0.1,0.2-0.2,0.3-0.3
		c0.1,0,0.1-0.1,0.2-0.1c0.9-0.7,1.9-1.4,2.8-2.1c2.5-1.9,5-3.7,7.5-5.5c17.3-12.8,32.6-28.4,47.1-44.2
		c27.8-30.2,52.3-63.7,72.7-99.4c10-17.5,18.8-35.6,27-54.1c1-2.2,2-4.3,3-6.5c1.2-2.7,2.3-5.5,3.5-8.2c0,0,0.4-0.9,0.7-1.5
		c0.3-0.7,0.7-1.5,0.7-1.6c0.5-1.1,1.1-2.2,1.6-3.4c1.9-4.2,3.6-8.4,5.4-12.6c4.2-10.1,8.2-20.2,11.8-30.5
		c29.7-83.5,40.9-174.7,30.3-262.8c-1.6-13.2-3.5-26.3-5.9-39.3c30.6,6.6,62,3.8,85.9-20.7C1583.7,565.5,1574.6,505.8,1571.3,454.8z
		 M120.3,172.3c0.5-0.7,1-1.4,1.5-1.7C121.7,170.7,120.9,171.6,120.3,172.3z M254.7,343.6C255.1,342.5,255,342.9,254.7,343.6
		L254.7,343.6z M815.8,51c0.2-0.1,0.5-0.1,0.8-0.2c-0.6,0.4-1.4,0.8-1.7,0.7C815.2,51.3,815.6,51.1,815.8,51z M779.4,16.6
		C779.4,16.6,779.4,16.6,779.4,16.6c-0.7,0.4-1.4,1-2,1.4C776.5,18.5,776.6,17.9,779.4,16.6z M775.8,19C775.8,19,775.8,19,775.8,19
		c-0.4,0.1-0.9,0.2-1.2,0.3C775,19.2,775.4,19.1,775.8,19z M747.6,50.9c1.1,0.4,0.7,0.8-0.8,0C747.1,51,747.4,50.9,747.6,50.9z
		 M745.2,49.8c0.1,0.1,0.2,0.3,0.3,0.4c-0.3-0.2-0.5-0.4-0.8-0.6C744.9,49.6,745,49.7,745.2,49.8z M743.1,51.9
		c-0.2,0.1-0.3,0.3-0.5,0.4C742.6,52.3,742.7,52.1,743.1,51.9z M696.4,30c-0.1,0.1-0.2,0.2-0.3,0.3c-0.2,0.1-0.3,0.2-0.4,0.3
		C695.9,30.4,696.2,30.2,696.4,30z M695.6,30.6c0.1,0,0.2-0.1,0.3-0.1c0,0,0,0,0,0C693.7,32.6,694.5,31.6,695.6,30.6z M662.4,51.8
		c0,0-0.1,0-0.1,0c0,0,0-0.1,0-0.1C662.3,51.7,662.3,51.7,662.4,51.8z M659.4,51.3c-0.1,0-0.2,0-0.4,0.1
		C659.3,51.2,659.4,51.2,659.4,51.3z M659,51.6c-0.1,0-0.3,0.1-0.4,0.1c0,0,0.1-0.1,0.1-0.1C658.8,51.6,658.9,51.6,659,51.6z
		 M658.6,51c0,0.2-0.1,0.3-0.1,0.4c0,0-0.1,0-0.1,0C658.5,51.3,658.6,51.1,658.6,51z M658.3,51.7c0,0,0.1,0,0.1,0
		c0,0.1,0,0.1-0.1,0.2c-0.1,0-0.1,0-0.2,0.1C658.2,51.8,658.2,51.7,658.3,51.7z M657.2,52.9c0,0.1-0.1,0.1-0.1,0.2
		c-0.1,0-0.3,0-0.4,0C656.8,53.1,657,53,657.2,52.9z M548.7,108.2c0.2-0.2,0.7-0.4,1.3-0.6C549.2,108,548.6,108.3,548.7,108.2z
		 M1294.1,200.7c0.8-0.3,1.9-0.4,2.9-0.5C1296.5,200.3,1294.4,200.6,1294.1,200.7z M1348.1,200.6c0.8,0,1.7,0.1,2.6,0.3
		C1350,200.8,1348.6,200.7,1348.1,200.6z"/>
	<path class="st1" d="M819.4,1308.3c-2.2,0-4.4,0-6.7,0c-19.4-0.1-39.1-1-58.3-1.9c-4.3-0.2-8.5-0.4-12.8-0.6
		c-3.5-0.2-7.1-0.3-10.6-0.4c-13-0.5-26.5-1-39.4-2.6l-19.3-2.4c-12.9-1.6-25.7-3.3-38.6-4.9c-36.5-4.7-75.6-12-119.7-22.4
		c-22.1-5.2-44-11.1-65.1-17.4c-2.2-0.7-4.5-1.3-6.8-2c-8.6-2.5-17.5-5.1-25.7-8.4c-0.5-0.2-1.1-0.4-1.7-0.7
		c-1.4-0.5-2.8-1.1-3.8-1.6l-0.9-0.8l-1.4-0.6c-0.5-0.2-0.9-0.4-1.4-0.5c-1.3-0.4-2.7-0.9-4.1-1.4c-4.4-1.5-8.9-3.2-13.3-5
		c-35.7-14.4-71-36-107.8-66.1c-34.4-28.1-62.3-55.9-85.4-85c-26.1-32.9-48.1-67.7-65.3-103.5c-9.1-19-18.4-39.3-24.9-59.8
		c-2.1-6.6-4.2-13.2-6.3-19.6c-1.5-4.5-2.9-9.1-4.4-13.6c-0.4-1.3-0.9-2.7-1.3-4c-1.3-3.8-2.5-7.3-3.1-10.7
		c-0.4-1.9-0.6-4.1-0.9-6.3l-0.2-1.8c0-0.2-0.1-0.8-0.2-1.4l0-0.3l-0.1-0.3c-0.1-0.5-0.2-0.9-0.3-1.1c-0.2-0.6-0.9-3.1-1.1-3.7
		C76.6,815.7,70.5,769.5,70.5,720c0-45.1,2.1-92.9,17.1-136.9c3-8.9,6.7-18.5,11.6-30.1c0.6-1.4,1.1-2.7,1.7-4.1
		c3.9-9.5,7.6-18.4,12.7-26.6c1-1.6,2.2-3.3,3.5-5.1c1.9-2.7,3.9-5.5,5.6-8.7c1.7-3.2,3.1-6.3,4.3-9.4c0.9-2,1.7-3.9,2.5-5.7
		c1-2.2,2.4-4.3,3.9-6.7c1.5-2.3,3-4.6,4.3-7.2c1.4-2.6,2.6-5.2,3.8-7.8c0.9-1.9,1.7-3.7,2.6-5.4c3.7-7.3,7.8-15.2,12.8-24.1
		l11-19.9l-22.1,5.4c-3.7,0.9-7.3,1.7-10.8,2.4c-14.9,3-32.5,6.2-49.5,6.2c-12,0-22.1-1.5-31.1-4.6c-13.8-4.7-24.8-12.9-32.6-24.4
		c-6.3-9.1-10-20.7-11.4-35.5c-2.2-23,6.5-46.4,15-69.1c1.1-2.8,2.1-5.7,3.1-8.5l29-79.2c8.9-24.4,18.2-49.7,35.3-70.6
		c13.8-16.9,35.4-30.2,62.4-38.3C177.5,99.5,203,96,228.9,96l0.8,0c50.9,0.1,97.3,16.4,130.6,45.8l5.7,5l7.2-4.6
		c1.5-1,3.1-1.9,4.6-2.9c0.2-0.1,0.5-0.3,1-0.6c0.7-0.4,1.6-1.1,2.3-1.5l0.8-0.5l1.5-1.3c1.3-1.2,3-2.4,5-3.6c1-0.6,2.1-1.2,3.2-1.8
		c0.7-0.4,1.3-0.7,2-1.1l3.9-2.2c2.6-1.4,5.1-2.9,7.7-4.3c13.8-7.7,32.2-17.6,52-25c4.3-1.6,8.6-3,12.7-4.2c0.3-0.1,0.8-0.3,1.4-0.4
		l2-0.7l1.2-0.9c1.4-1,5-2.2,6.7-2.8c4.6-1.6,9.4-3.1,14-4.5c3.9-1.2,8-2.5,12-3.8c4.1-1.4,8.6-2.8,13.2-4.2c1.1-0.3,2.2-0.7,3.4-1
		c2.6-0.8,5.3-1.7,7.4-1.9l1.4-0.2l1.3-0.6c1.4-0.6,3.8-1.4,5.2-1.9c0.3-0.1,0.5-0.2,0.8-0.3c0.5-0.1,2.4-0.5,2.8-0.6
		c4.8-1.1,9.5-2.1,14-3.1c18-3.9,35.9-7.2,53.3-9.9L617,55l1.1-7.2c0.4-2.8,1.1-5.2,2-7.4c6.7-17.2,22.4-28.3,40-28.3l0.5,0
		c10.4,0.1,20.5,4,28.7,10.9c-5.3,4.5-5.1,9.1-4,12.1l2.4,6.6l7,0c3.9,0,6.3-2.1,8-3.7l0.3,0.4l7.7-9.1c1.1-1.3,2.1-2.5,3.2-3.6
		c8.5-8.8,21.1-14.1,33.7-14.1c3.2,0,6.4,0.3,9.5,1c3.5,0.8,6.8,2.2,10,4.3c-0.1,1.2,0,2.3,0.2,3.3l1.7,7.9l8.2,0c0.3,0,0.7,0,1-0.1
		l0.2,0.5c-0.2,0.1-0.4,0.1-0.6,0.2l1.5-0.3l0.5,0.6l7.2-5.7c1.8-1.4,3.7-2.9,5.6-4.3c3.3-2.4,7.4-4.1,11.3-5.6
		c4.5-1.7,9.7-2.6,15.1-2.6c3.8,0,7.6,0.5,11,1.3c4.2,1.1,9.4,3.6,12.6,13.5c0.9,2.7,1.6,5.6,2.3,8.8c0.9,4,1.7,8.3,2.4,13.2
		l1.5,10.2l10.1-1.8c1.1-0.2,2.2-0.3,3.3-0.3c1.3,0,2.5,0.1,3.7,0.4c13.6,2.8,27.3,5.6,40.7,8.3c17.5,3.5,35.6,7.2,53.3,11
		c25.8,5.6,52,12.7,78,21.2c12.7,4.2,24.9,8.6,36.3,13.1c8,3.2,16,6.6,23.8,10c0.1,0.1,0.3,0.2,0.5,0.2c0.7,0.3,1.5,0.8,2.5,1.1
		l0,0.2c0.9,0.2,1.5,0.4,1.7,0.5c4,1.7,8.2,3.4,12.3,5.3c12.9,5.8,25.1,12.3,35.4,18c3.2,1.8,6.5,3.5,9.7,5.3
		c7.7,4.1,15.6,8.4,23,12.8c3.7,2.2,7.3,4.7,11.1,7.2c2.5,1.7,5.1,3.4,7.7,5.1c3.5,2.2,7.2,4.6,11.2,6.8l4.7,2.6l4.8-2.5
		c29.2-15,63.2-23,98.4-23l1.1,0c46.5,0.2,95.6,13.8,142.1,39.2c21.6,11.8,39,25,51.8,39.2c15.9,17.7,26.8,38.7,32.2,62.4
		c5,21.6,6.4,44.6,7.8,66.9c0.2,2.9,0.4,5.8,0.5,8.6l5.1,79.5c0.3,5.1,0.7,10.3,1.1,15.4c3.5,46.6,7.1,94.9-25.2,127.9
		c-13.6,14-30.5,20.8-51.7,20.8c-7.8,0-16.2-1-24.9-2.9l-14.6-3.2l2.7,14.7c2.3,12.4,4.2,25.4,5.8,38.7
		c10.3,85.3,0,174.6-29.8,258.3c-3.5,9.8-7.4,19.9-11.6,30l-1.2,2.8c-1.3,3.2-2.7,6.4-4.1,9.6c-0.3,0.7-0.7,1.4-1,2.2l-0.5,1.1
		l-0.8,1.9l-0.7,1.6c-0.3,0.8-0.6,1.5-1,2.3c-0.8,2-1.6,3.8-2.4,5.6c-0.5,1-0.9,2-1.4,3.1c-0.5,1.2-1.1,2.3-1.6,3.5
		c-9,20.3-17.7,37.7-26.6,53.2c-19.9,34.9-43.9,67.7-71.3,97.5c-13.7,14.9-28.7,30.4-45.7,42.9c-1,0.7-2,1.5-3,2.2
		c-1.5,1.1-3,2.2-4.5,3.3c-0.4,0.3-0.9,0.7-1.3,1c-0.5,0.4-1,0.7-1.5,1.1l-0.4,0.3l-0.6,0.5c-0.7,0.6-1.5,1.2-2.2,1.9
		c-3.2,2.7-6.5,5.4-9.6,8.6c-6.3,6.3-14.1,11.4-22.4,16.7c-1.6,1-3.1,2-4.7,3c-20.1,13.2-37.3,23.2-54.3,31.4
		c-17.9,8.7-39.1,18.3-60.4,23.2c-43.9,10-90.8,20.3-138.7,25.9C912.9,1306.2,871.1,1308.3,819.4,1308.3z M254.9,332.9
		c-2.5,0-7.1,0.9-9.5,6.9l18.5,7.6c0.6-1.4,2.3-5.6-0.7-10l-3-4.4H254.9z M1347.6,210.6c0.3,0,1.2,0.1,1.8,0.2l3.3-19.7
		c-1-0.2-2.6-0.5-4.4-0.5l-0.2,0l-0.3,20L1347.6,210.6z M116.9,161.9c-2.4,1.4-3.9,3.4-4.9,5l13.1,9.5L116.9,161.9z M547.7,97.9
		c-1.1,0.2-4.3,1-6.7,3.9l-4.1,4.9l2.7,5.8l2.7,5.8l6.4,0c2.4,0,4-0.8,5.7-1.6L547.7,97.9z M739,42.8c-3.7,1.7-5.2,4.5-5.7,6
		l-1.5,3.9l1.7,3.9l5.7,12.3l8.3-7.4c0.2,0,0.4,0,0.5,0c4.8,0,9-3.4,10-8.1c0.8-4.1-0.9-9.3-6.7-11.6l-0.1,0l-2-1l-0.2,0.2l-2,0.1
		c-0.2,0-0.3,0-0.5,0l-1.4,5.7l-1.9,2.9L739,42.8z M637.3,68.2l19.5-5.6l0,0.4c0.7,0,1.4-0.1,2.2-0.2l4.7-0.9l0.7-1.3l3.9-0.6l1-7.4
		l-0.6-0.1l0.8-1.5l0.3-2.3l0.8-2.5c0.2,0.4,0.5,0.8,0.7,1.4l10-18.5l-23.8,12.2c-0.5,0.1-0.9,0.2-1.4,0.3l-4,0.1l-2.8,5
		c0,0,0,0,0,0l0,0L637.3,68.2z M814.4,41.1c-0.3,0.1-0.7,0.2-1,0.2l-1.2,0.3l-1.1,0.6l-18.8,9.6l18.1,8.7c1.4,0.7,2.9,1,4.5,1
		c2.3,0,4.6-0.7,7-2.3L814.4,41.1z"/>
</g>
<path class="st2" d="M773.9,1272.8c119.9-13.1,487.5-50.1,575-719.2c97.9,43.1,87.3,86.8,87.3,86.8s34,267-92.9,419.2
	s-267.2,239.6-512,233C806.6,1292.5,773.9,1272.8,773.9,1272.8z"/>
<g>
	<path class="st3" d="M1701.6,1187.7c331.6-5.3,663.1-10.6,994.7-15.9s663.1-10.6,994.7-15.9c330-5.3,659.6-10.5,988-46.9
		c161.9-18,323.2-40.6,484.7-61.4c82.1-10.6,164.2-20.7,246.5-29.5c36.8-3.9,73.8-8.5,110.8-9.2c9-0.2,18.1-0.2,27.1,0.2
		c3.4,0.2,6.7,0.3,10.1,0.6c1.4,0.1,15.1,1.4,8.1,0.6c5.8,0.7,35.3,8.1,41.1,10.6c-6.1-2.6,6.2,3.3,7.3,3.9c3,1.6,6.2,4.6,9.4,5.6
		c5.6,1.7-1.1-1.3-2.8-2.6c2.6,2.2,5.2,4.4,7.7,6.7c2.8,2.6,14.8,18.2,6.8,6.3c3.8,5.7,7.3,11.5,10.8,17.4c5.8,9.8,0.8,1.1-0.1-1.5
		c1.2,3.1,2.3,6.3,3.3,9.5c1.8,6,2.4,22.4,2.5,7.1c-0.1,5.4-0.3,11.5,0.1,16.8c0.7,9.1,1.4-12,0.2-3c-0.5,4-5.5,13.4,1.2,0.3
		c-1.6,3.2-9.9,15.2-5.2,9.9c5.7-6.4-1.4,1.5-3,2.3c-7.5,3.9,10.4-3.8,2.4-1.8c-1.6,0.4-4.2,2.5-5.7,3.4c-9.2,5.7,1.2-1,3.4-1.4
		c-2.5,0.5-5.8,1.5-8.4,2.3c-10.9,3.4,8.8,0.8,1.9-0.3c-2.5-0.4-13.5,1.8-15.6-0.5c0.7,0.7,13.1,3.1,3.6,0c-2.9-0.9-6-1.5-9-2.4
		s-5.9-2-8.9-3.1c2.2,0.8,12.1,6.3,2.4,0.7c-5.5-3.2-10.8-6.9-16.4-9.9c12.5,6.7-1.5-1.5-5.4-5.3c-2.2-2.2-4.2-5-6.5-7
		c0.6,0.5,6.1,9.6,2.7,3.6c-2.9-5.3-6.3-11.2-9.6-16.3c-3.7-5.7,1.7,3.6,1.9,4.5c-1.1-5.4-3.5-10.9-4.7-16.3
		c-0.3-1.4-2.6-14.9-1.8-8c0.9,6.9-0.3-6.7-0.3-8.1c-0.3-7.8,0-15.7,0.6-23.5c1.1-13.6,0.9-5.9,0.4-3.1c0.8-4.5,1.7-9,2.8-13.4
		c2.1-9,4.6-17.9,7.5-26.6c6-17.9,8.6-23.7,18.3-42.6c8.3-16.2,17.5-31.8,26.9-47.4c17.9-29.7,36.6-58.9,52.3-89.8
		c16.9-33.4,31.4-68.5,38.3-105.4c6.2-32.9-9.1-70.8-44.8-79c-31.6-7.2-72.3,9.6-79,44.8c-3.3,17.4-8.1,34.2-14.3,50.8
		c-4.5,12.2-2.3,5.6-1.1,3c-1.8,4-3.7,8.1-5.6,12c-4.8,10-10,19.8-15.4,29.5c-17.4,31.3-37.1,61.2-54.9,92.3
		c-42.4,74-73,159.3-54.4,245.2c15,69.6,72.6,126.9,141.6,143.9c73.8,18.2,148.8-12.9,179-84.5c28.4-67.3,0.5-150.5-51.9-198.3
		c-61.4-56.1-147.8-65.6-227.5-60c-171.9,12.1-343.4,39.4-514.2,61.8c-171.9,22.6-344,44.4-516.9,57.7
		c-173.8,13.3-348.1,18.6-522.3,21.9c-351.2,6.8-702.4,11.4-1053.7,17.1c-350.1,5.6-700.3,11.2-1050.4,16.8
		c-43.8,0.7-87.5,1.4-131.3,2.1c-33.6,0.5-65.8,29.1-64.2,64.2C1638.9,1157.9,1665.6,1188.3,1701.6,1187.7L1701.6,1187.7z"/>
</g>
<g>
	<g>
		<path class="st4" d="M656.1,1378.7c3.2,0,3.2-5,0-5S652.9,1378.7,656.1,1378.7L656.1,1378.7z"/>
	</g>
</g>
<g>
	<path class="st3" d="M1775.8,385.3c-0.1,98.4-0.1,196.8-0.2,295.3c0,50.1-0.1,100.2-0.1,150.2c0,32.2,5.1,64.7,28.9,88.5
		c22.6,22.6,51.6,29.9,82.2,33.1c25.2,2.7,50.9,2.5,76.3,3.6c28,1.2,56,2.4,84,3.6c33.6,1.4,65.7-30.6,64.2-64.2
		c-1.6-36-28.2-62.7-64.2-64.2c-45-1.9-89.9-3.8-134.9-5.8c-8.5-0.4-16.9-0.9-25.4-1.4c-6.7-0.4,8.2,1.2,8,1c-0.9-0.7-6.3-1.4-7-1.6
		c-2.2-0.5-8-3.2,1.1,0.9c11.6,5.2-4.4-4.9,5.2,3.4c7.7,6.7,2.7,2.3,1.3,0.8c3.3,3.7,5.1,7.3,7.4,11.4c3.9,7,1,2.7,0.5-0.1
		c0,0.1,0.7,13.7,1,6.7c0.5-11.2-0.2-22.7-0.2-33.8c0.1-90.7,0.1-181.3,0.2-272c0-51.8,0.1-103.6,0.1-155.4
		c0-33.6-29.5-65.8-64.2-64.2C1805.2,322.7,1775.8,349.4,1775.8,385.3L1775.8,385.3z"/>
</g>
<g>
	<path class="st3" d="M2282.8,856.6c0-90.1,0-180.2,0-270.2c0-33.6-29.5-65.8-64.2-64.2c-34.8,1.6-64.2,28.2-64.2,64.2
		c0,90.1,0,180.2,0,270.2c0,33.6,29.5,65.8,64.2,64.2C2253.4,919.2,2282.8,892.5,2282.8,856.6L2282.8,856.6z"/>
</g>
<g>
	<path class="st3" d="M2218.1,459.9c33.6,0,65.8-29.5,64.2-64.2c-1.6-34.8-28.2-64.2-64.2-64.2c-33.6,0-65.8,29.5-64.2,64.2
		C2155.5,430.5,2182.1,459.9,2218.1,459.9L2218.1,459.9z"/>
</g>
<g>
	<path class="st3" d="M2392.9,459.2c96.2,0.8,191.8-6.7,287-20.1c14.8-2.1,31.2-17.3,38.4-29.5c8.1-13.8,11.5-34,6.5-49.5
		s-14.6-30.5-29.5-38.4c-16.3-8.6-31.4-9-49.5-6.5c-3.4,0.5-6.7,1-10.1,1.4c7.8-1,9.2-1.2,4.4-0.6c-5.9,0.7-11.8,1.5-17.7,2.2
		c-10.1,1.2-20.3,2.3-30.5,3.4c-22,2.2-44.1,4.1-66.2,5.5c-44.2,2.8-88.5,4-132.7,3.6c-33.6-0.3-65.7,29.7-64.2,64.2
		C2330.3,430,2356.9,458.9,2392.9,459.2L2392.9,459.2z"/>
</g>
<g>
	<path class="st3" d="M2467,461.7c6.1,132,12.2,263.9,18.3,395.9c1.6,33.5,28.4,65.8,64.2,64.2c33.5-1.5,65.9-28.3,64.2-64.2
		c-6.1-132-12.2-263.9-18.3-395.9c-1.6-33.5-28.4-65.8-64.2-64.2C2497.8,399,2465.3,425.7,2467,461.7L2467,461.7z"/>
</g>
<g>
	<path class="st3" d="M2829.3,425.6c72.1-0.6,144.1-1.1,216.2-1.6c33.6-0.3,65.8-29.3,64.2-64.2c-1.6-34.6-28.2-64.5-64.2-64.2
		c-72.1,0.5-144.1,1.1-216.2,1.6c-33.6,0.3-65.8,29.3-64.2,64.2C2766.6,396,2793.3,425.9,2829.3,425.6L2829.3,425.6z"/>
</g>
<g>
	<path class="st3" d="M2862.5,379.3c4.5,71.3,5.6,142.7,3.2,214c-1.2,34.8-3.2,69.6-6.1,104.3c-1.5,17.8-3.1,35.6-5.1,53.3
		c-0.9,8.4-1.9,16.9-2.9,25.3c-0.6,5.1-1.2,10.1-1.9,15.2c-0.5,3.7-2.5,19.4-0.4,3.2c-2.4,17.9-3.1,33.2,6.5,49.5
		c7.8,13.3,23.1,26,38.4,29.5c16.4,3.7,34.9,2.9,49.5-6.5c12.9-8.3,27.3-22.3,29.5-38.4c20.1-149.2,27.1-299.1,17.6-449.5
		c-2.1-33.5-28-65.8-64.2-64.2C2893.7,316.5,2860.2,343.4,2862.5,379.3L2862.5,379.3z"/>
</g>
<g>
	<path class="st3" d="M3164,370.3c-10,143.6-15.2,287.6-15.5,431.5c-0.1,36.1,29.5,62.3,64.2,64.2c76.3,4.2,152.6,8.4,228.9,12.6
		c33.6,1.8,65.7-30.8,64.2-64.2c-1.6-36.4-28.2-62.2-64.2-64.2c-76.3-4.2-152.6-8.4-228.9-12.6c21.4,21.4,42.8,42.8,64.2,64.2
		c0.3-144,5.5-287.9,15.5-431.5c2.3-33.6-31.2-65.7-64.2-64.2C3191.4,307.8,3166.5,334.4,3164,370.3L3164,370.3z"/>
</g>
<g>
	<path class="st3" d="M3676.2,820.5c3.1-153.5,6.2-307,9.4-460.5c-21.4,21.4-42.8,42.8-64.2,64.2c54.2,0.5,108.4,1.1,162.7,1.6
		c33.6,0.3,65.7-29.8,64.2-64.2c-1.6-35.1-28.2-63.8-64.2-64.2c-54.2-0.5-108.4-1.1-162.7-1.6c-35.2-0.3-63.5,29.7-64.2,64.2
		c-3.1,153.5-6.2,307-9.4,460.5c-0.7,33.6,30,65.7,64.2,64.2C3647.4,883.1,3675.5,856.5,3676.2,820.5L3676.2,820.5z"/>
</g>
<g>
	<path class="st3" d="M3658,677.5c15,0,30,0,45,0c33.6,0,65.8-29.5,64.2-64.2c-1.6-34.8-28.2-64.2-64.2-64.2c-15,0-30,0-45,0
		c-33.6,0-65.8,29.5-64.2,64.2C3595.3,648.1,3622,677.5,3658,677.5L3658,677.5z"/>
</g>
<g>
	<path class="st3" d="M3631,884.7c36,0,72.1,0,108.1,0c33.6,0,65.8-29.5,64.2-64.2c-1.6-34.8-28.2-64.2-64.2-64.2s-72.1,0-108.1,0
		c-33.6,0-65.8,29.5-64.2,64.2C3568.3,855.3,3595,884.7,3631,884.7L3631,884.7z"/>
</g>
<g>
	<path class="st3" d="M4189.5,811.5c0-156.8,0-313.6-0.1-470.4c0-8.8,0.4-17.8,0.1-26.7c0-0.7,0.1-1.3,0.1-2
		c0.1,6.3-1.5,12.1-4.8,17.4c-3.9,6.8-21.9,25.2-33.9,21c4.9,1.8,13.8,0.1,19.2,0.4c9.6,0.6,19.2,1.5,28.8,2.4
		c14.2,1.3-12-1.9-2.7-0.5c3.4,0.5,6.8,1,10.2,1.6c8.1,1.4,16.2,3,24.2,5c6.6,1.6,13.2,3.4,19.7,5.5c3.9,1.2,7.6,2.7,11.5,4
		c12.8,4.2-11.6-5.8-0.4-0.3c7.2,3.5,14.4,7,21.3,11.2c3.5,2.1,6.7,4.4,10.1,6.6c8,5.1-4-0.6-3.3-2.8c-0.2,0.6,14.6,13.4,16.1,15.1
		c1.2,1.4,3,4.1,4.6,5.3c-6.4-8.4-7.6-9.9-3.7-4.5c1.4,1.9,2.6,3.9,3.9,5.9c1.9,3,3.6,6.1,5.3,9.2c1.1,2.1,5,12.6,1.3,1.9
		c-3.8-11,0,0.3,0.7,2.2c1.2,3.3,2.2,6.7,3.1,10.1s1.5,6.8,2.4,10.2c2.5,10-0.8-5.8-0.7-6.8c-0.7,7.7,0.7,16.1,0.4,23.9
		c-0.4,10.8,0.9-7.2,1-7c0.9,2.9-2.3,10.1-3.2,13c-0.4,1.1-0.7,2.1-1.1,3.2c-2.4,6.2-1.5,4.2,2.6-6.1c-1.9,2.1-3.5,6.2-4.9,8.8
		c-5.7,10.9,10.7-10.9,1.9-2.1c-2.2,2.2-9.8,7.7-10.7,10.4c2-6,11.1-7.9,2.4-2.3c-3.7,2.4-7.6,4.3-11.5,6.4
		c-11.8,6.4,14.4-4.5,1.4-0.7c-4.3,1.2-8.5,2.8-12.8,3.9c-3.1,0.8-6.3,1.5-9.4,2.2c-2.5,0.5-5.1,1-7.7,1.4c-7,1.1-5.2,0.9,5.4-0.6
		c-16.7-0.6-34.4,2.7-51.2,3.1c-33.5,0.8-65.8,29-64.2,64.2c1.5,34.1,28.2,65,64.2,64.2c37.8-0.9,77.8-2.6,113.5-15.9
		c48.2-18.1,84-49.8,103.2-98.1c29.1-73.4-4.2-166.4-64.4-214c-34.4-27.2-73.5-45.9-116.4-55.8c-21.6-5-43.9-7.9-66-10.2
		s-44.4-4.3-66.3,0.6c-36,8-60.9,38.8-65.7,74.5c-3.1,23-1.8,46.4-1.8,69.6c0,45.7,0,91.3,0,137c0,101.7,0,203.3,0,305
		c0,33.6,29.5,65.8,64.2,64.2C4160.1,874.2,4189.5,847.5,4189.5,811.5L4189.5,811.5z"/>
</g>
<g>
	<path class="st3" d="M4612.9,775.5c0-84.1,0-168.1,0-252.2c0-33.6-29.5-65.8-64.2-64.2c-34.8,1.6-64.2,28.2-64.2,64.2
		c0,84.1,0,168.1,0,252.2c0,33.6,29.5,65.8,64.2,64.2C4583.5,838.1,4612.9,811.5,4612.9,775.5L4612.9,775.5z"/>
</g>
<g>
	<path class="st3" d="M4557.7,389.3c33.6,0,65.8-29.5,64.2-64.2c-1.6-34.8-28.2-64.2-64.2-64.2c-33.6,0-65.8,29.5-64.2,64.2
		C4495,359.9,4521.7,389.3,4557.7,389.3L4557.7,389.3z"/>
</g>
<g>
	<path class="st3" d="M5021.3,402.4c-14.9-90.2-116.7-150.4-202.9-121.2c-46.3,15.7-81.7,47.5-100.7,92.5
		c-18,42.6-20,92.1-23.6,137.8c-6,75.2-10.6,159.5,28.6,227.3c46.7,80.6,147.2,106.1,229.1,65.6c91.5-45.3,97.7-167.3,44.5-244.2
		c-12.8,31.4-25.6,62.9-38.4,94.3c2.3-0.7,4.9-0.9,7.1-1.8c6.5-2.4-14.7,1.3-7.1,0.8c6.2-0.3,12.3-0.9,18.5-0.9
		c5.6,0,11.2,0.1,16.8,0.4c6.2,0.4,26,3.2,2.1-0.3c17.7,2.6,33.4,3,49.5-6.5c13.3-7.8,26-23.1,29.5-38.4c7-30.5-9.3-73.7-44.8-79
		c-34.6-5.2-71.6-8.2-105.7,1.7c-37.2,10.9-62.6,59.3-38.4,94.3c3.3,4.8,6.5,9.8,9.2,15c1.6,3,2.8,6.8,4.7,9.7
		c-0.7-1.1-5.3-15-2.5-5.3c1.7,5.8,3.6,11.4,4.9,17.4c0.4,2.1,2.4,14.1,0.6,2.1c-1.8-12.4-0.1,3.1,0,5.6c0,2.3,0,4.7-0.1,7
		c-0.4,9.1-4.7,8.3,0.8-3.4c-1.8,3.9-4.1,12.2-4.5,16.2c0.2-1.5,7.6-14.1,2.3-6.3c-0.5,1-1.1,1.9-1.7,2.9c-3.6,5.5-2.2,3.9,4.2-4.8
		c-1.5,1.1-3.3,3.8-4.5,5c-1.7,1.7-3.4,3.3-5.2,4.8c2.4-1.9,4.9-3.7,7.3-5.6c-2.9,0.6-13.3,6.8-15.5,9.1c2.9-1.2,5.8-2.4,8.7-3.6
		c-2.2,0.9-4.5,1.7-6.8,2.4s-4.6,1.4-7,1.9c-7.7,1.9-12-1.3,2.8,0.2c-2.1-0.2-5.2,0.5-7.2,0.6c-3.6,0.2-7.2,0.2-10.9,0
		c-6.4-0.3-13.8-4.7,2.7,0.7c-5.6-1.8-11.7-2.9-17.4-4.6c-9.9-2.9,4.7,1.4,5.4,2.3c-1.3-1.9-7.4-3.9-9.5-5.2c-2-1.3-3.9-2.9-6-4
		c14.4,8.2,6.1,4.7,1.9,0.5c-1.8-1.7-3.4-3.6-5-5.3c-8.4-8.8,8.6,12.8,0.1,0c-3-4.6-5.4-9.4-8.1-14.1c-6.5-11.6,5.1,14.5,0.7,1.9
		c-0.8-2.3-1.7-4.6-2.4-7c-1.9-5.9-3.5-11.9-4.8-18c-0.8-3.7-1.4-7.4-2.1-11.1c-2.4-12.1,1.4,15.2,0.2,1.9
		c-2.5-28.3-2.2-56.4-0.8-84.8c0.8-15.8,1.9-31.7,3.2-47.5c0.7-8.3,1.5-16.6,2.4-24.9c0.5-5,1.1-10,1.7-14.9c0.2-1.7,0.4-3.3,0.6-5
		c1-7.6,0.8-6.6-0.5,3c-0.4-6.7,2.5-16,4-22.5c0.7-2.9,1.4-5.9,2.3-8.8c0.4-1.4,0.9-2.9,1.3-4.3c2.4-6.6,1.9-5.8-1.6,2.7
		c1.3-1,3.1-6.3,4.1-8.1c3-5.2,9.9-10.6-1.8,0.8c1.7-1.7,3.2-3.8,4.9-5.5c1.5-1.6,13.6-11.9,4.5-4.8c-8.8,6.9,1-0.3,2.6-1.3
		c2.5-1.5,7.8-3,9.8-5.2c-2.8,1.2-5.7,2.4-8.5,3.6c2.3-0.9,4.6-1.7,7-2.4c3.2-0.9,8-1,10.8-2.6c-8.5,4.9-13.5,1.3-4.3,0.9
		c3.7-0.2,9.4,1.3,12.9,0.3c-1.8,0.5-15.8-3.7-6.1-0.5c2.3,0.8,16.7,6.4,6.3,1.3c-10.4-5,0.7,0.6,2.3,1.5c2.5,1.4,6.5,5.4,9.3,5.9
		c-2.4-1.8-4.8-3.7-7.2-5.5c1.9,1.6,3.7,3.2,5.5,4.9c2.3,2.2,4.9,6.8,7.5,8.1c-7.8-4.1-7.3-10.2-2.5-2.5c1.9,3,3.6,9,6.1,11.3
		c-1.3-1.2-4.7-14.8-2.5-5.1c1.1,4.8,2.5,9.4,3.3,14.3c5.5,33.2,48.4,54.7,79,44.8C5012.4,469.7,5027.2,438,5021.3,402.4
		L5021.3,402.4z"/>
</g>
<g>
	<path class="st3" d="M5143.2,778.3c63.5,21,129.5,31.9,191.7,0.5c64.7-32.8,88.3-108.6,70.4-175.9c-16.1-60.4-62.2-102.5-101.7-148
		c-3.8-4.3-7.4-8.8-11.1-13.2c-7.6-9.2,1.5,2.5,2.1,2.8c-2.1-0.8-4.9-6.8-6.2-8.7c-3.6-5.3-7.1-10.7-10.3-16.2
		c-1.4-2.5-2.8-4.9-4.1-7.5c-1-1.9-1.9-3.8-2.8-5.7c-2-4.4-1.3-2.5,2.2,5.6c-2.4-0.8-4.6-13-5.3-15.6c-0.6-2.3-5.1-21.7-2.4-9.9
		c2.5,11.1,0.3-0.2,0.2-2.8s-0.1-5,0-7.5c0.1-2.4,0.6-5.1,0.5-7.5c0.8,15.1-1.6,9.4,0.1,2.3c0.6-2.4,1.2-4.8,1.9-7.2
		c0.5-1.8,1.1-3.5,1.8-5.2c1.7-4.6,0.8-2.3-2.9,6.9c1.3-1.7,2.3-4.5,3.5-6.4c1.2-2.1,2.6-4.1,4-6.1c-1.8,2.4-3.6,4.8-5.5,7.2
		c1.1-0.6,4.1-4.1,5.1-5.3c7.3-8.6-12.3,7.1-2.9,2.2c1-0.5,4.6-2.1,5.6-3.1c-10.5,4.2-12.6,5.1-6.4,2.7c1-0.3,2-0.7,3.1-1
		c2.5-0.8,5.4-1,7.9-1.9c7-2.4-16.4,0.6-5.9,1.1c2.5,0.1,5.5,0.4,8,0.2c5.3-0.5-16.7-4.8-4.6-0.3c2.6,1,9.6,3.5-0.3-0.8
		c-11.4-5-0.2,0.8,2,1.6c6.9,2.3-11-9.6-5.6-4.5c10.2,9.8-7.5-12-1-2.2c18.6,27.9,57.5,42.6,87.8,23c27.8-18,42.9-57.9,23-87.8
		c-38.6-58-117.1-74.2-177-38.7c-61.1,36.3-79.6,111.9-65.6,177.8c12.8,60.1,56.3,107.7,96.6,151.4c5,5.4,9.9,10.8,14.7,16.3
		c3.5,4,9.2,8.6,11.2,13.4c-5.1-12.1-4.2-5.5-0.9-0.8c2.1,3,4.1,6,6,9c3.7,5.9,6.2,13.3,10.3,18.8c-6.9-9.2-3.5-9.6-1.9-4
		c1,3.3,2.1,6.5,3,9.8c0.4,1.5,1.3,9.4,2.2,10c-0.9-0.5-1.2-16.6-0.8-5c0.1,2.7,0.3,5.4,0.3,8.1c0,2.1-1.8,14.6,0.3,3.4
		c2.1-11.6-0.6,1.4-1.1,3.1c-0.4,1.3-0.8,2.5-1.1,3.8c-2.3,6.4-1.7,5,2-4.4c-0.1,0-4.3,7.4-4,6.9c-6.1,10.6,9.7-9.3,0.6-1.3
		c-0.3,0.2-5.2,4.2-5.5,5.1c8.2-6.1,9.5-7.2,3.9-3.4c-1.1,0.7-2.1,1.3-3.2,2c-0.3,0.2-6.3,2.8-6.7,3.5c9.6-3.8,11.2-4.5,4.8-2.1
		c-1.2,0.4-2.4,0.8-3.6,1.2c-3,1-6.1,1.8-9.2,2.5c-14.4,3.3,8.4-0.2,1.9,0.2c-8,0.4-15.7,0.3-23.7,0.2c-5.9,0-7.2-3.5,3,0.8
		c-3.6-1.5-10-1.7-14-2.5c-17.1-3.6-33.7-9-50.3-14.5c-31.9-10.6-71.5,12.2-79,44.8C5090.3,734.7,5109.1,767,5143.2,778.3
		L5143.2,778.3z"/>
</g>
<g>
	<path class="st3" d="M378.9,144.8c-38.3-41.1-93.9-59.8-149.2-59.9c-25.8-0.1-52.6,3.2-77.4,10.6c-25.4,7.6-50.3,20.7-67.3,41.5
		c-17.7,21.7-27.4,47.5-36.9,73.5c-9.7,26.4-19.3,52.8-29,79.2c-9.5,26-21.4,53.6-18.7,81.9c1.4,14.1,5,28.3,13.1,40.2
		c9.3,13.6,22.1,22.8,37.6,28.2c26.8,9.2,58.8,4.3,85.9-1.2c26.6-5.4,53.4-14.4,76.8-28.4c11.1-6.7,16.2-22.5,8.9-33.8
		c-7.2-11.1-21.9-16-33.8-8.9c-4.2,2.5-8.5,4.9-13,7c-1.5,0.7-5.9,1.9-7,3.2c1.5-1.8,4.4-1.8,1.6-0.7c-1.7,0.7-3.4,1.4-5.2,2
		c-10.4,3.9-21.1,7.1-31.9,9.7c-4.7,1.1-9.5,2.1-14.3,3c-2.6,0.5-5.2,0.9-7.9,1.3c-1.5,0.2-3.2,0.3-4.7,0.7c1.2-0.2,2.3-0.3,3.5-0.5
		c-1,0.1-2,0.3-3.1,0.4c-10.2,1.2-20.5,1.9-30.7,1.1c-0.9-0.1-5.6-1.2-1.5-0.1c4.2,1.1-0.7-0.2-1.4-0.3c-2.6-0.5-5.1-1.1-7.6-1.9
		c-0.9-0.3-2.1-0.9-2.9-1c4.7,0.6,3.4,1.5,0.9,0.3c-1.2-0.6-2.3-1.2-3.4-1.9c-0.7-0.4-1.3-0.8-2-1.3c-1.5-1.1-0.9-0.5,1.9,1.5
		c0-0.8-4.4-4.2-5.2-5.2c-3.4-3.7,2.4,3.8,0.8,0.9c-0.6-1.1-1.3-2-1.9-3.1c-0.5-0.8-0.9-1.7-1.4-2.6c-2.6-4.5,1.8,5.5,0.1,0.5
		c-0.8-2.4-1.6-4.7-2.2-7.1c-0.3-1.5-0.6-2.9-0.9-4.4c-0.6-2.9,1.1-0.8,0.3,2.1c0.6-1.9-0.4-5.3-0.4-7.5c0-2.1-0.5-6.6,0.5-8.5
		c-1.6,3.2-0.6,3.5-0.1,1.1c0.4-2.1,0.8-4.2,1.2-6.4C53.7,338,58.3,326,62.7,314c9-24.6,18-49.1,27-73.7
		c4.2-11.4,8.3-22.9,12.7-34.3c1-2.6,2.2-5.1,3.1-7.7c-2.3,6.9,0.8-1.8,1.5-3.2c2.4-5.2,5.1-10.4,8.1-15.3c1.3-2.1,2.6-4.2,4-6.2
		c0.7-1,1.9-3.4,2.9-4c-0.2,0.1-3.8,4.5-0.8,1.2c3.8-4.3,7.8-8.1,12-12c2.6-2.3-5,3.5-0.6,0.4c1.1-0.8,2.2-1.5,3.3-2.3
		c2-1.3,4-2.6,6.1-3.8c2.3-1.3,4.7-2.6,7-3.7c1.2-0.6,2.4-1.2,3.6-1.7c5.8-2.6-3.9,1.4,0.8-0.3c10.2-3.7,20.4-6.7,31.1-8.8
		c2.7-0.5,5.4-1,8.1-1.5c1.2-0.2,2.3-0.4,3.5-0.6c1.7-0.3,6.7-2,0.4-0.1c5.3-1.6,12-1.3,17.6-1.7c13.5-0.8,27-0.6,40.5,0.9
		c1.1,0.1,2.3,0.4,3.5,0.4c-6.7-0.3-1.3-0.1,0.4,0.1c3.5,0.6,6.9,1.2,10.3,2c6.3,1.4,12.5,3,18.6,5c3.3,1.1,6.6,2.3,9.9,3.6
		c4.2,1.5-0.4-0.3-1-0.5c2.1,0.7,4.2,1.9,6.2,2.8c5.5,2.7,10.9,5.6,16.1,8.9c2.6,1.6,5.1,3.4,7.6,5.2c1.1,0.8,2.4,1.5,3.4,2.5
		c-4.5-4.5-0.9-0.7,0.2,0.3c5.1,4.3,10,8.9,14.5,13.8c8.8,9.5,26.1,9.6,34.9,0C388.2,169.6,388.3,155,378.9,144.8L378.9,144.8z"/>
</g>
<path class="st5" d="M850.4,91.5c-0.9-0.1-2.1-0.3-2.1-0.3C849,91.3,849.7,91.4,850.4,91.5z"/>
<g>
	<path class="st3" d="M199.6,348.5c-0.1,0.3-1.3,3.7-0.3,1.2c1.1-2.8-0.7,1.5-1,2.1c-1.1,2.2-2.3,4.2-3.6,6.2
		c-3.2,4.9-6.4,9.9-9.5,14.9c-6.1,9.7-11.9,19.6-17.6,29.5c-11.1,19.2-22.3,38.6-32.3,58.5c-2.2,4.3-4,8.7-6.3,13
		c-2.6,4.9-6,9.2-8.4,14.2c-2.3,4.8-4.1,10-6.7,14.7c-2.5,4.6-6,8.8-8.8,13.3c-6.2,10.1-10.5,21.2-15.1,32.1
		c-4.2,10.1-8.3,20.3-11.8,30.7C63,623.3,60.5,672.1,60.5,718.9c0,47.2,5.5,94.8,18.7,140.2c0.4,1.2,0.7,2.5,1.1,3.7
		c0.1,0.5,0.7,3.8,0.2,0.6c-0.5-3.2,0,0.3,0.1,0.8c0.3,2.7,0.7,5.8,1.2,8.6c1,5.4,3,10.7,4.7,15.9c3.5,11.1,7.2,22.1,10.7,33.2
		c6.6,20.9,15.9,41.4,25.4,61.1c18.1,37.7,40.5,72.8,66.5,105.4c25.6,32.1,55.2,60.5,86.9,86.5c33.8,27.7,69.7,51.3,110.3,67.7
		c4.5,1.8,9.1,3.5,13.7,5.1c1.4,0.5,2.9,1,4.3,1.4c1.2,0.4,3,1.9,0.8,0.2c-2.4-1.8-0.5,0,0.2,0.4c2.3,1.5,5,2.3,7.5,3.3
		c10.8,4.3,22.2,7.4,33.3,10.7c21.7,6.5,43.6,12.3,65.7,17.6c39.8,9.4,80.2,17.4,120.7,22.6c19.3,2.5,38.6,4.9,57.9,7.3
		c16.8,2.1,33.9,2.4,50.8,3.1c23.8,1.1,47.6,2.4,71.5,2.5c46.7,0.1,93.2-1.2,139.7-6.6c47.4-5.6,93.4-15.5,139.8-26.1
		c21.5-4.9,42.7-14.3,62.5-24c19.2-9.4,37.5-20.3,55.4-32.1c9.9-6.5,20.4-12.7,28.7-21.1c3.5-3.6,7.4-6.7,11.2-9.9
		c3-2.6-2.7,2,0.5-0.4c0.9-0.7,1.9-1.4,2.8-2.1c2.5-1.9,5-3.7,7.5-5.5c17.3-12.8,32.6-28.4,47.1-44.2c27.8-30.2,52.3-63.7,72.7-99.4
		c10-17.5,18.8-35.6,27-54.1c1-2.2,2-4.3,3-6.5c1.2-2.7,2.3-5.5,3.5-8.2c0-0.1,1.6-3.7,0.6-1.5c-1,2.2,0.7-1.5,0.7-1.5
		c0.5-1.1,1.1-2.2,1.6-3.4c1.9-4.2,3.6-8.4,5.4-12.6c4.2-10.1,8.2-20.2,11.8-30.5c29.7-83.5,40.9-174.7,30.3-262.8
		c-2.7-22.5-6.4-44.7-11.6-66.7c-3-12.6-18-21.3-30.4-17.3c-13.1,4.2-20.4,16.9-17.3,30.4c2.5,10.5,4.7,21.1,6.6,31.7
		c0.8,4.7,1.6,9.5,2.3,14.2c0.1,0.6,0.8,5.6,0.4,2.6c-0.4-2.6,0.2,1.3,0.2,1.5c0.3,2.8,0.7,5.5,1,8.3c2.3,21,3.4,42.1,3.3,63.2
		c-0.1,21.5-1.5,43.1-4.1,64.4c-0.2,1.3-0.9,7-0.4,2.9c-0.3,2.4-0.7,4.7-1,7.1c-0.8,5.5-1.8,11.1-2.8,16.6
		c-1.9,10.6-4.2,21.2-6.7,31.7c-5,20.7-11.1,41.2-18.3,61.2c-1.8,4.9-3.6,9.8-5.5,14.7c-0.9,2.3-1.8,4.5-2.7,6.8
		c-0.5,1.1-0.9,2.2-1.4,3.4c-0.3,0.7-0.6,1.5-0.9,2.2c0.8-1.8,0.8-1.9,0.1-0.3c-2.5,5.7-5,11.4-7.5,17.1c-1.6,3.8,1.5-2.8-0.4,0.8
		c-0.6,1.1-1.1,2.2-1.6,3.4c-1.1,2.4-2.1,4.7-3.1,7.1c-15.9,35.6-35.4,69.7-58.6,101.1c-1.3,1.8-2.6,3.5-3.9,5.2
		c-2.8,3.7,1.4-1.7-1.5,1.9c-3.2,4-6.4,8-9.7,11.9c-6.4,7.6-13,15-19.8,22.3c-6.6,7-13.4,13.9-20.4,20.5c-3.5,3.4-7.2,6.6-10.7,9.9
		c-0.1,0.1-2.8,2.7-1,1c2-1.9-1.6,1.2-2.1,1.6c-2.2,1.6-4.4,3.2-6.6,4.8c-5.1,3.8-10.1,7.6-15,11.6c-1.8,1.5-3.5,3-5.2,4.5
		c-0.9,0.8-1.7,1.6-2.5,2.4c-0.4,0.4-4.4,4.8-2.6,2.9c1.6-1.6-0.9,0.7-1.2,0.9c-1,0.7-2,1.3-2.9,2c-1.9,1.3-3.9,2.7-5.9,4
		c-4.5,3.1-9.1,6.1-13.7,9c-17.3,11.1-35.1,21.5-53.7,30.2c-2.5,1.2-4.9,2.3-7.4,3.4c-1.1,0.5-2.1,0.9-3.2,1.4
		c0.4-0.2,3.2-1.3,0.5-0.2c-5.1,2-10.2,4.1-15.4,5.9c-9.8,3.4-19.4,5.9-29.5,8.1c-22.3,4.9-44.4,10.8-66.9,14.9
		c-10.9,2-21.8,3.8-32.7,5.4c-1,0.2-8.5,1.2-4.7,0.7c-2.5,0.3-5,0.7-7.5,1c-5.9,0.7-11.8,1.4-17.6,2c-22.4,2.4-44.9,3.9-67.3,4.7
		c-46.3,1.8-92.7,0-139-2.1c-25.1-1.2-49.6-3.5-74.4-6.7c-9.3-1.2-18.5-2.3-27.8-3.5c-0.8-0.1-1.5-0.2-2.3-0.3
		c1.8,0.3,5.9,0.9,1.3,0.1c-3.4-0.6-6.7-1.1-10.1-1.6c-10.9-1.8-21.7-3.6-32.5-5.6c-44.1-8.1-87.9-18.4-130.9-31.3
		c-5.3-1.6-10.5-3.2-15.8-4.9c-2.4-0.8-4.9-1.6-7.3-2.3c-1.2-0.4-2.4-0.8-3.7-1.2c-0.8-0.3-1.6-0.5-2.4-0.8
		c-1.7-0.6-1.6-0.5,0.1,0.1c0.4,0.2,0.9,0.3,1.3,0.5c-0.7-0.5-1.5-0.9-2.3-1.3c-2.1-1.1-4.5-2-6.7-2.9c-2-0.8-4-1.4-6-2.1
		c-5-1.7-10-3.5-14.9-5.4c-1.3-0.5-6.2-2.7-2.4-1c-2.4-1.1-4.8-2.1-7.1-3.2c-4.7-2.2-9.4-4.5-14-6.9c-8.5-4.5-16.9-9.4-25-14.5
		c-8.5-5.4-16.7-11.1-24.8-17.1c-1.8-1.3-3.6-2.7-5.4-4c-0.2-0.1-3.1-2.4-1.1-0.8c2.3,1.8-1.4-1.1-1.9-1.5c-3.8-3-7.6-6.1-11.3-9.2
		c-15.6-13-31-26.5-45.4-40.9c-14-14-27.2-28.9-39.5-44.5c-0.7-0.9-1.4-1.7-2.1-2.6c0.3,0.3,2.1,2.9,0.5,0.6
		c-1.5-2.1-3.1-4.1-4.7-6.2c-2.9-3.9-5.6-7.8-8.4-11.7c-5.7-8.2-11.1-16.5-16.3-25c-10.2-16.7-19.5-34-27.9-51.7
		c-2.1-4.4-4.1-8.7-6-13.2c-0.9-2-1.8-4.1-2.7-6.1c-0.3-0.8-1.8-4.4-0.1-0.3c-0.6-1.4-1.1-2.8-1.7-4.1c-3.9-9.5-7.3-19.1-10.5-28.8
		c-3.5-11.1-7.2-22.1-10.7-33.2c-0.7-2.2-1.5-4.4-2.1-6.7c-0.3-1-0.4-2-0.6-3c1.3,4.6,0.2,1.8,0.1,0.4c-0.9-7.1-2.5-13.5-4.4-20.4
		c-2.9-10.7-5.4-21.5-7.5-32.4c-1-5.4-2-10.8-2.8-16.2c-0.2-1.2-0.4-2.5-0.6-3.7c0-0.1-0.6-4.2-0.2-1.7c0.3,2.5-0.2-1.6-0.2-1.7
		c-0.2-2.1-0.5-4.2-0.7-6.2c-4.9-44.4-3.5-89.2,0.9-133.6c0.3-3,0.6-6,0.9-8.9c-0.4,3.9,0.4-2.1,0.6-3.2c1-5.6,2.2-11.2,3.5-16.8
		c2.5-10.2,5.8-20.3,9.4-30.2c1.8-5,3.7-9.9,5.7-14.8c1.1-2.6,2.2-5.3,3.2-7.9c-1.4,3.4,1.4-3.2,1.8-4.2c4.1-9.5,9.2-18,15.1-26.5
		c5.8-8.3,8.7-18.3,14.1-26.8c5.6-8.8,9.5-18.7,14.5-27.9c10.4-19.1,20.8-38.2,31.8-57c11.2-19.1,25.5-37.2,32.7-58.3
		c4.2-12.2-4.8-27.6-17.3-30.4C216.2,328.1,204.1,335.4,199.6,348.5L199.6,348.5z"/>
</g>
<g>
	<path class="st3" d="M854.5,93.1c55.1,11.6,110.6,21.2,164.4,38c12.5,3.9,24.9,8.1,37.1,12.8c5.6,2.1,11.2,4.2,16.6,6.6
		c-6-2.7-0.4-0.1,0.7,0.3c1.7,0.7,3.3,1.5,5,2.2c1.1,0.5,2.2,1,3.3,1.5c-1.8-0.8,15,5.8,6.9,2.9c12.6,4.6,24.7,11.6,36.4,17.9
		c11.7,6.3,23.4,12.9,35.1,19.3c7.4,4.1,14.3,9.2,21.4,13.8c7.8,5,17,11.5,26.2,13.4c12.6,2.6,27.3-3.6,30.4-17.3
		c2.8-12.3-3.7-27.6-17.3-30.4c-0.2,0-1.6-0.2-1.6-0.4c-0.2-0.1-0.4-0.2-0.6-0.2c4.8,2.1,6,2.6,3.8,1.6c-1.4-0.7-2.8-1.4-4.1-2.1
		c-3.9-2.1-7.6-4.5-11.3-6.9c-6.4-4.1-12.6-8.6-19.1-12.5c-10.8-6.5-22.1-12.3-33.1-18.3c-11.8-6.5-23.8-12.8-36.1-18.3
		c-4.2-1.9-8.5-3.7-12.7-5.5c-1.4-0.6-6.8-1.8-0.9-0.4c-1-0.2-2.4-1.1-3.3-1.5c-8-3.5-16-6.9-24.1-10.2
		c-12.1-4.9-24.5-9.3-36.9-13.3c-25.9-8.5-52.3-15.7-79-21.5C930.4,58,899,52,867.7,45.5c-12.6-2.6-27.3,3.7-30.4,17.3
		C834.5,75.1,841,90.3,854.5,93.1L854.5,93.1z"/>
</g>
<g>
	<path class="st3" d="M247.3,361.6c1.3-3.6,2.7-7.2,4.1-10.8c0.7-1.7,1.3-3.3,2-5c0.4-0.9,0.8-1.9,1.2-2.8c1.3-3.1-0.2,0.6-0.7,1.7
		c3.3-7.2,6.4-14.5,9.9-21.6c6.8-13.8,14.3-27.1,22.5-40.1c4.1-6.5,8.4-12.8,12.9-19c2.2-3.1,4.6-6.1,6.9-9.2
		c-0.3,0.4-3.6,4.6-1,1.4c0.5-0.6,1-1.2,1.4-1.8c1.4-1.8,2.9-3.6,4.3-5.4c9.8-11.9,20.3-23.2,31.5-33.9c5.6-5.4,11.4-10.5,17.4-15.5
		c3-2.5,6.1-4.9,9.1-7.4c2.1-1.7-2,1.5-1.9,1.5c0.8-0.6,1.7-1.3,2.5-1.9c1.7-1.3,3.4-2.5,5.1-3.8c6.4-4.7,13-9.1,19.7-13.4
		c4-2.6,8.3-4.9,12-7.8c1.4-1,2.9-2.1,4-3.4c1.5-1.8-1.7,1.6-1.9,1.5c0.7,0.3,6.3-3.6,7-3.9c15.4-8.7,30.8-17.1,47-24.5
		c3.1-1.4-4.2,1.7-1,0.4c0.8-0.3,1.6-0.7,2.5-1c2.2-0.9,4.4-1.7,6.6-2.5c4.5-1.6,9.1-2.7,13.6-4.2c3.2-1.1,6.4-2.5,9.3-4.1
		c0.5-0.3,1.5-0.7,1.9-1.1c-1.6,2-4.7,1.5-1.4,0.7c4.6-1.1,9.1-2.8,13.6-4.2c9.5-3.2,19-6.5,28.7-9.1c5.4-1.4,11.7-2.1,16.4-5.3
		c3.3-2.2-3.7,1.5-3.5,1.2c0.6-0.7,3.8-0.9,4.7-1.1c2.5-0.6,5-1.1,7.6-1.7c21.5-4.7,43.1-8.9,64.8-12.2c5.7-0.9,12-6.6,14.8-11.4
		c3.1-5.3,4.4-13.1,2.5-19c-1.9-6-5.6-11.7-11.4-14.8c-6.3-3.3-12.1-3.5-19-2.5c-19.5,3-38.9,6.6-58.2,10.7c-4.7,1-9.4,2.1-14.1,3.1
		c-1.8,0.4-3.7,0.8-5.4,1.3c7.7-2.3-6.1,2-6.7,3c-1.6,1-1.2,0.9,1.3-0.3c2.5-0.9,2.9-1.1,1.3-0.7c-4.3,0.3-9.1,2.2-13.3,3.4
		c-4.5,1.3-9,2.8-13.5,4.3c-8.6,2.9-17.4,5.4-26,8.4c-2.8,1-7.2,2.5-9.8,4.6c-1.8,1.5,2.1-1,2.5-0.9c-0.5-0.1-2.7,0.8-3.4,1
		c-4.5,1.3-9,2.8-13.5,4.5c-18.6,7-36.1,16-53.4,25.6c-3.9,2.2-7.7,4.3-11.6,6.5c-1.8,1-3.7,2-5.4,3c-2.3,1.4-4.6,2.9-6.6,4.7
		c-0.4,0.4-3.9,3.5-0.7,1c3.3-2.6-2.7,1.4-3.5,1.9c-1.6,1-3.2,2-4.7,3c-3.6,2.3-7.1,4.6-10.6,7c-14.6,10.1-28.7,21.1-41.9,33
		c-24.9,22.3-46.7,48.1-65.4,75.8c-21,31-37.4,64.9-50.2,100.1c-4.4,12.2,5,27.6,17.3,30.4C230.8,382.1,242.5,374.7,247.3,361.6
		L247.3,361.6z"/>
</g>
<polygon class="st6" points="440.4,915.4 394.6,878.8 385.9,776.5 479.6,659.7 643.9,628.5 755.9,651.6 844.2,702.3 865.4,806.9 
	821.3,915.4 718.3,923.2 592.1,868.8 "/>
<g>
	<path class="st3" d="M539.9,620.3c-83.2,19.6-160,85.1-178.7,170.7c-6.3,28.7-5.4,58,7.4,84.8c11,23,31.4,40.2,55,49
		c23.2,8.7,49.2,6.1,73.1,2.8c11.2-1.6,22.4-3.7,33.5-5.7c5-0.9,10-1.8,15-2.6c1.5-0.2,3.1-0.5,4.6-0.7c4.2-0.7-1.6,0.2-2,0.2
		c2.9-0.2,5.9-0.7,8.8-1c11.3-1,22.6-0.8,33.9,0.2c2.6,0.2,5.3,0.9,7.9,0.9c-0.5,0-6.2-0.9-1.9-0.2c1.3,0.2,2.6,0.4,3.9,0.6
		c5.4,0.9,10.8,1.9,16.2,3.1c20.9,4.6,41.4,10.9,62.2,16.1c21.8,5.4,44.4,9.6,67,9.2c24.8-0.4,48.7-6.5,71.1-17
		c45.6-21.3,73-70.7,78.5-119.3c5.5-48.5-16-97.6-49-132.3c-69-72.5-179.3-83.8-273-66.5C562.1,614.6,550.9,617.2,539.9,620.3
		c-12.4,3.5-21.4,17.6-17.3,30.4c4.1,12.7,17.1,21,30.4,17.3c11-3.1,22.1-5.7,33.4-7.8c5.1-1,10.3-1.8,15.5-2.5
		c4.5-0.7-0.8,0-1.4,0.2c1.6-0.5,3.6-0.4,5.2-0.6c2.9-0.3,5.8-0.6,8.7-0.9c22.7-2.1,45.7-2.1,68.5,0.1c2.9,0.3,5.8,0.6,8.6,1
		c1.6,0.2,4.3,1.2-1.4-0.2c1.1,0.3,2.3,0.3,3.4,0.5c5.9,0.9,11.8,2,17.7,3.3c10.7,2.3,21.2,5.2,31.5,8.8c2.2,0.8,4.4,1.6,6.6,2.4
		c0.9,0.3,2.7,1.5,3.6,1.4c-2.3,0.2-4.4-1.9-1.6-0.7c4.7,2.1,9.4,4.3,14,6.7c9.1,4.8,17.8,10.2,26.1,16.3c0.8,0.6,1.6,1.3,2.4,1.8
		c-5.3-3.6-2.1-1.6-0.8-0.6c1.8,1.4,3.5,2.9,5.2,4.4c3.8,3.3,7.4,6.7,10.9,10.3c3.3,3.4,6.5,6.8,9.5,10.4c0.8,0.9,1.6,1.9,2.3,2.9
		c2.6,3.2-1-1.1-1.2-1.5c1.1,2.4,3.6,4.9,5.1,7.2c5.2,7.7,9.3,15.8,13.2,24.2c-3.5-7.6,0.6,1.9,1.2,3.6c0.9,2.5,1.7,5,2.5,7.6
		c1.6,5.5,2.9,11.1,3.9,16.7c0.3,1.9,0.2,5.6,0-0.8c0,1.1,0.3,2.2,0.4,3.3c0.3,2.7,0.4,5.5,0.5,8.2c0.2,5.4-0.1,10.8-0.6,16.2
		c-0.4,4.5,0-1.4,0.3-1.7c-0.6,0.6-0.6,3.9-0.8,4.8c-0.4,2.1-0.8,4.3-1.3,6.4c-1.3,5.6-3.1,11.2-5.2,16.6c-0.7,1.8-0.9,5.1,0.3-0.4
		c-0.2,0.9-1,2.3-1.4,3.1c-1.2,2.6-2.5,5.2-3.8,7.8c-2.8,5.3-5.9,10.4-9.2,15.4c-0.6,0.9-1.2,1.8-1.9,2.8c-0.4,0.5-3.1,4.6-0.7,1.1
		c2.3-3.5-0.4,0.3-0.8,0.9c-0.6,0.7-1.3,1.5-1.9,2.2c-1.6,1.8-3.3,3.5-5,5.1c-1.6,1.5-4.1,2.9-5.4,4.7c0.9-0.7,1.8-1.4,2.8-2.1
		c-0.8,0.6-1.5,1.1-2.3,1.7c-0.8,0.6-1.6,1.1-2.4,1.6c-2,1.3-4,2.6-6.1,3.8c-1.7,1-3.4,1.9-5.1,2.8c-1.3,0.7-2.7,1.3-4,2
		c-0.5,0.2-0.9,0.4-1.4,0.6c-2.4,1.1-1.8,0.8,1.7-0.7c-4.4,0.8-8.9,3.4-13.2,4.8c-5.1,1.6-10.3,2.9-15.5,3.9
		c-1.8,0.4-10.7,1.1-2.7,0.6c-2.3,0.1-4.6,0.5-6.9,0.7c-5.3,0.4-10.6,0.5-15.9,0.3c-4.5-0.1-9-0.5-13.5-0.9c-1-0.1-2-0.2-3-0.3
		c-5.5-0.6,6,1,0.6,0.1c-2.5-0.4-5-0.8-7.4-1.2c-41.4-7.4-80.7-22.7-122.8-27c-22.4-2.3-44.2,0.1-66.3,3.9
		c-10.3,1.8-20.5,3.8-30.8,5.5c-2.7,0.5-5.5,0.9-8.2,1.3c-1.1,0.2-2.2,0.3-3.3,0.5c6.6-1.1,2.5-0.3,0.8-0.1
		c-5.4,0.6-10.7,1.1-16.1,1.3c-4.9,0.2-9.9,0.2-14.8-0.1c-1-0.1-2-0.2-3-0.2c-5.2-0.3,4.8,0.8,1.4,0.2c-2.6-0.5-5.3-0.9-7.9-1.6
		c-2.4-0.6-4.8-1.5-7.2-2.3c-1.9-0.6-2.7-2.1,1.7,0.8c-0.8-0.5-1.8-0.9-2.7-1.3c-2.2-1.1-4.4-2.4-6.4-3.7c-0.8-0.5-1.6-1.1-2.4-1.7
		c-4-2.6,4.4,3.7-0.2-0.2c-1.7-1.4-3.3-2.9-4.8-4.5c-1.3-1.3-3.3-4.6-4.8-5.5c0.4,0.2,3.5,4.9,1.2,1.5c-0.7-1-1.4-2-2-3
		c-1.4-2.2-2.8-4.5-4-6.8c-0.4-0.8-0.8-1.7-1.3-2.6c-2.3-4.4,1.7,4.5,0.5,1.3c-0.8-2.4-1.7-4.7-2.4-7.2c-0.8-2.9-1.4-5.8-2-8.8
		c-1-4.7-0.1,0.9,0.1,1.3c-0.6-1.4-0.4-3.8-0.5-5.3c-0.4-6,0-11.9,0.4-17.9c0.1-1.7,1.2-4-0.2,1.2c0.3-1.1,0.4-2.4,0.6-3.6
		c0.6-3.6,1.3-7.1,2.2-10.6c2.2-8.9,5.5-17.2,8.5-25.8c-2.7,7.7,0.1,0,0.9-1.7c0.9-1.9,1.8-3.8,2.8-5.6c2.2-4.4,4.7-8.6,7.2-12.8
		c2.2-3.6,4.6-7.1,7-10.6c1.3-1.9,3-3.7,4.2-5.7c-0.2,0.3-3.8,4.8-1.2,1.6c0.9-1.1,1.8-2.2,2.7-3.3c6-7.2,12.4-14,19.2-20.3
		c3.4-3.1,6.8-6.2,10.4-9.1c0.8-0.6,1.5-1.2,2.3-1.8c3.9-3.2-3.7,2.8-1,0.7c2.2-1.6,4.3-3.2,6.5-4.8c7.8-5.5,16-10.6,24.5-15.1
		c4.2-2.2,8.4-4.3,12.7-6.3c0.9-0.4,1.8-0.8,2.7-1.2c4.7-2.1-4.3,1.7-1.1,0.4c2.6-1,5.1-2.1,7.7-3c9-3.3,18.2-6.1,27.5-8.3
		c12.6-3,21.3-18,17.3-30.4C566,624.4,553.4,617.1,539.9,620.3L539.9,620.3z"/>
</g>
<g>
	<path class="st3" d="M660.4,141.7c-1.1-22.7-1.9-45.5-3-68.2c-0.2-5.2-0.6-10.5-0.7-15.7c0-1.5,0.2-3,0.1-4.4
		c-0.1-3.4-1.7,5.7-0.1,0.5c0.2-0.7,2.3-5.6,0.3-1.9c-2.1,3.9,1.4-1.5,1.5-2.1c-0.8,3.3-3.2,3.8-0.7,1.3c2.9-2.9,1,0.7-1.2,0.7
		c0.2,0,3.6-1.9,3.7-2.1c-0.3,0.6-5.8,1.8-1.9,0.9c0.5-0.1,0.9-0.3,1.4-0.4c2.6-0.5,1.8-0.5-2.3,0.1c0.4,0.2,2.8-0.1,3-0.1
		c5.2-0.3-5.7-1.6-0.6-0.2c1.4,0.4,2.9,1,4.3,1.3c-1.1-0.4-2.1-0.8-3.2-1.3c0.9,0.4,1.7,0.9,2.6,1.5c3.1,1.6-1.7,0.4-1.5-1.2
		c0,0.1,2.7,2.9,2.9,3.1c-3-1.9-2.9-3.9-1.5-1.8c3.5,5.4,7.3,11,12.2,15.2c7.4,6.5,16.4,10.3,26.4,10.1c10.4-0.2,19.3-4.9,27-11.5
		c3.5-3,6.4-6.6,9.5-10.1c1.5-1.7,3-3.2,4.6-4.8c2.7-2.7-1.4,1.4-1.9,1.5c0.8-0.1,4-2.1,4.6-2.6c-3,2.7-4.6,1.6-2.2,1
		c1.3-0.3,2.6-0.7,3.8-1.1c4.5-1.3-5-0.1-2,0.3c1,0.1,2.2,0,3.2,0c4.7-0.1-5.3-1-2.2-0.3c3,0.7,1.7,1.8-1.8-1.1
		c0.4,0.2,0.7,0.4,1.1,0.6c2.1,1.3,1.5,0.7-2-1.8c0.3,0.3,0.6,0.6,0.9,0.8c1.6,1.7,1.2,1.2-1.1-1.7c0,0.8,1.7,2.4,2.2,3.1
		c2,2.7,4,5.4,6.4,7.8c4.4,4.3,10.2,7.4,16.2,8.9c10.8,2.7,22.5,0.2,32-5.3c4.1-2.4,7.9-5.6,11.6-8.5c2.8-2.3-1.2,0.3-1.2,0.9
		c0-0.9,4.7-3,5.4-3.5c3.3-2-1.2,1.5-1.5,0.6c-0.1-0.4,8.1-1.7,3-1c-4.4,0.6,0.9,0.1,1.5,0.1c1.1,0,2.1,0.1,3.2,0.2
		c-3.9-0.6-4.5-0.6-1.8,0c-5.8-5.8-11.5-11.5-17.3-17.3c1.8,5.4,3.2,11,4.3,16.6c0.3,1.5,0.6,3,0.8,4.6c0.2,1,0.3,2.1,0.5,3.1
		c-0.1-1.1-0.3-2.3-0.4-3.4c-0.1,3.3,0.8,7,1.1,10.3c1,12.2,1,24.6-0.6,36.8c-0.7,5.8,3.3,13.5,7.2,17.5c4.3,4.3,11.3,7.5,17.5,7.2
		c6.4-0.3,13-2.4,17.5-7.2c4.7-5.2,6.4-10.6,7.2-17.5c1.8-14,1.5-28.3,0.1-42.4c-0.9-8.9-2.1-17.8-4.1-26.5
		c-0.7-3.2-1.6-6.5-2.6-9.6c-3.1-9.9-9.1-17.5-19.7-20.2C822-1,810-0.5,800.1,3.2c-4.8,1.8-9.4,3.8-13.6,6.8c-2.8,2-5.5,4.2-8.2,6.3
		c-1.7,1.3-2.6,0.8,1.2-0.9c-0.9,0.4-1.8,1.3-2.6,1.9c-0.7,0.4-1.4,0.8-2,1.2c-2.5,1.8,4.7-1.2,1.7-0.7c-0.5,0.1-1.8,0.3-2.2,0.6
		c1.5-0.9,3.9-0.2,5.4-0.2c0.6,0.1,1.2,0.2,1.8,0.3c-2-0.6-1.9-0.5,0.2,0.3c1.5,0.8,3.1,1.3,4.3,2.5c0.3,0.3,3.5,4.8,1.1,1.4
		c-0.6-0.8-1.2-1.7-1.8-2.5c-6.7-8.9-15.1-16-26.3-18.4c-18.7-4.1-39.3,2.1-52.6,15.9c-2.1,2.2-3.9,4.5-5.9,6.8
		c-1.1,1.2-2.2,2.5-3.3,3.6c-0.5,0.5-1,1-1.5,1.4c-3.3,3.1,0.3-0.9,1.4-1c-0.5,0-1.2,0.8-1.6,1c-2.5,1,3.6-1.4,3.1-1.3
		c-3.6,1.1,2.7-0.3,2.9-0.3c-0.3,0,5.9,1.2,3.3,0.5c-3-0.8,4.9,2.6,2.4,1c-2-1.3,2.5,2.1,2.5,2c-0.2-0.5-1.3-0.8-1.4-1.4
		c-0.5-0.5-0.9-1-1.3-1.5c0.7,1,1.5,1.9,2.2,2.9C699.9,13.5,681,1.2,660.6,1c-22.4-0.2-41.9,14.2-49.8,34.7
		c-3.8,9.9-3.6,20.9-3.1,31.3c0.4,8,0.7,15.9,1.1,23.9c0.7,17,1.4,33.9,2.2,50.8c0.6,12.9,10.9,25.3,24.7,24.7
		C648.5,165.9,661,155.6,660.4,141.7L660.4,141.7z"/>
</g>
<g>
	<path class="st7" d="M518.3,803.6c-5.2,2.3-8.5-6-7.7-11.6c1.3-8.9,4.4-17.6,9.1-25.3c7.5-6.7,18.4-9.7,27.9-6.6
		s16.9,12.7,16.3,22.7c-0.5,10-13.5,16.7-21,21.2C538.9,806.4,524.7,809.3,518.3,803.6"/>
	<g>
		<path class="st3" d="M511.7,779.7c8.1-1.8,14.3,0,18.7,5.7c3.3,3.9,4.2,4.7,2.8,2.3c1.5,3.9,2,4.9,1.5,3c-0.4-2-0.3-0.8,0.4,3.5
			c-0.2-4.2-1.6,6.3-0.2,0.9c0.3-1.4,0.6-2.8,1-4.1c0.4-1.6,0.9-3.3,1.5-4.9c1.4-4-0.5-1.4-0.3,0.4c-0.1-1.3,1.8-3.2,2.2-4.5
			c1.6-2.5,0.9-2.1-2,1.3c-3.3,2.9-3.9,3.6-1.6,1.9c1-0.6,3.1-1.4,3.9-2.2c-1,0.5-2.1,0.9-3.1,1.4c0.9-0.3,1.9-0.6,2.9-0.9
			c4.1-1.4-4.2,0-1.4,0.1c1,0,6.4,0.3,1.9-0.2c-5.1-0.7,1,0.6,1.1,0.5c-3.7-1.7-4.3-2-2-0.8c0.4,0.2,0.8,0.5,1.2,0.7
			c4.4,2.2-4.3-3.5-0.5-0.3c1.3,1.5,1.3,1.4-0.1-0.3c-1.3-1.8-1.4-1.8-0.3-0.2c2.1,4-1.2-5.5-0.2-0.7c0.9,4.3,0.1-4.8,0-1.7
			c-0.2,5.8,0.9-3.7,0.4-1.5c-0.7,2.7,2.9-5.5,0.7-2.1c3.9-6,2.2-2.6,0.7-1.1c-0.9,0.9-2.1,1.7-2.9,2.6c3.6-4.2,3-2.3,0.7-0.8
			c-1.1,0.7-2.2,1.4-3.3,2.1c-1.7,1-3.7,1.9-5.3,3.1c-1.9,1.4,6.7-2.3,3.2-1.4c-1,0.3-2.1,0.5-3.1,0.8c-4.1,1.2,6.3-0.3,1.8-0.2
			c-1.3,0-2.6,0-3.8,0.1c-4.4,0.2,6,1.3,1.6,0.2c-0.4-0.1-0.8-0.2-1.1-0.4c2.7,0.7,5,2.1,6.9,4.1c-5.4-4.2-10.3-7.2-17.5-7.2
			c-6.1,0-13.3,2.7-17.5,7.2c-8.2,8.9-10.8,26.4,0,34.9c9.1,7.1,19,11.2,30.7,10.5c8.8-0.5,17.1-2.3,24.9-6.8
			c16.2-9.3,32-22.3,32.3-42.7c0.3-23.9-19-44.1-42.1-47.2c-11.6-1.6-22.8,0.8-33.1,6.2c-11.8,6.2-17.4,16.3-22.1,28.1
			c-4.4,10.7-7.2,23.4-4.2,34.8c4.3,16.3,20.5,28.9,37.7,23.5c12.3-3.9,21.5-17.3,17.3-30.4C538.1,784.7,524.9,775.5,511.7,779.7
			L511.7,779.7z"/>
	</g>
</g>
<g>
	<path class="st3" d="M686.3,735.1c-13.8,3.7-28,8.7-37.9,19.6c-12,13.2-16.1,31.2-9.5,48c3.1,7.8,6.8,15.1,13.2,20.7
		c8.2,7.2,18,9.7,28.7,9.6c14.4-0.1,29.1-1.5,41.9-8.7c14.6-8.2,24.5-23.1,25.1-40c0.6-16.4-5.3-36.4-21-44.2
		c-13.4-6.7-30.4-6-44.9-3.6c-15.9,2.6-31.8,13.3-35.9,29.6c-3.3,13.2,2.2,27.2,14.3,33.9c8.5,4.7,18.4,4.2,27.8,3.7
		c9.2-0.5,18.6-0.9,26.6-5.9c12.8-8,19.2-27.2,9.8-40.3c-3.9-5.4-8.2-9.5-14.8-11.4c-5.9-1.6-13.8-0.9-19,2.5
		c-10.4,6.7-16.9,22.6-8.9,33.8c17.6-21.9,20.9-31.3,9.8-28.1c4.2-0.5,4.8-0.6,1.8-0.4c-2.4,0.1-4.8,0.3-7.2,0.4
		c-2.4,0.1-4.8,0.2-7.2,0.2c-13.9,0.1,15.1-1.9,15.2,19.3c0.1,2.8-0.5,5.3-1.8,7.8c-1.2,2.2-2.9,3.8-5.1,5c0.8-0.6,1.7-1.1,2.6-1.6
		c2.4-1.2,1.8-0.9-1.7,0.7c0.3,0.2,4.6-1.2,5.2-1.3c1.9-0.3,1-0.2-2.7,0.3c1-0.1,2.1-0.2,3.1-0.2c4.2-0.2,8.3,0.1,12.5,0.2
		c2.1,0.2,2,0.1-0.3-0.2c-2.3-0.4-2.4-0.3-0.4,0.1c-2.3-0.7-4.2-2-5.8-3.8c-2.2-3.2-2.6-3.8-1.3-1.5c-3.3-6.3-0.9-1-0.4,1.2
		c0.5,2.8,0.5,2.5,0-0.9c0.1,0.9,0.2,1.9,0.2,2.9c0,1.9,0.1,1.3,0.5-1.8c-0.2,0.9-0.4,1.9-0.8,2.8c1.7-3.7,1.9-4.4,0.6-2.1
		c-1.4,2.1-1,1.6,1.3-1.6c-0.6,0.7-1.3,1.4-2,2c3.1-2.3,3.7-2.7,1.5-1.2c-0.7,0.4-3.4,1.4-3.8,2.1c3.8-1.5,4.3-1.8,1.6-0.8
		c-1.1,0.3-2.2,0.6-3.3,0.9c-1.1,0.3-2.2,0.5-3.4,0.7c3.7-0.5,4.2-0.5,1.4-0.3c-4.1,0.2-8.1,0.4-12.2,0.4c-1.1,0-2.1,0-3.2,0
		c2.4,0,4.5,0.6,6.5,1.8c3,2.6,3.5,2.9,1.7,1.1c2.3,3.1,2.7,3.6,1.3,1.4c-0.5-0.9-1-1.7-1.4-2.6c0.4,0.9,0.7,1.8,1.1,2.6
		c-1.1-1.2-2-9.5-1-2c0.1-2.7,0-2-0.3,2.1c0.8-2.5,0.5-1.9-0.9,1.7c0.5-0.9,1-1.8,1.6-2.6c-2.4,2.9-2.7,3.4-0.9,1.4
		c0.5-0.6,1.1-1.1,1.7-1.6c1.4-1.2,0.8-0.7-2,1.5c-0.1-0.5,5.5-3.2,6.1-3.3c-3.2,1.3-3.5,1.5-1,0.6c1.1-0.4,2.2-0.7,3.4-1.1
		c2.3-0.7,4.5-1.3,6.8-1.9c12.5-3.3,21.3-17.8,17.3-30.4C712.5,739.6,699.7,731.6,686.3,735.1L686.3,735.1z"/>
</g>
<g>
	<path class="st3" d="M1248.4,296.9c-6.6,41.3-4.4,83.1,7.1,123.3c11.5,40.1,31.3,77,57.3,109.5c24.4,30.7,55.7,56.9,90.6,74.9
		c43.3,22.3,102,40,141,0.1c39.3-40.3,30.2-100,26.9-151c-1.7-26.5-3.4-53-5.1-79.5c-1.7-25.8-2.7-51.9-8.6-77.2
		c-5.8-25-17.4-47.7-34.5-66.8c-15.2-16.9-34.6-30.5-54.5-41.3c-44.7-24.4-95.7-40.1-146.9-40.4c-45.6-0.2-92.9,12.7-129.8,40
		c-18.7,13.9-35,30.2-47.2,50.2c-12.3,20.2-17.8,42.7-20.7,65.9c-0.5,3.9-0.9,7.8-1,11.8c-0.5,12.9,11.7,25.3,24.7,24.7
		c13.8-0.6,24.2-10.9,24.7-24.7c0.1-3.6,0.5-7.2,0.9-10.7c0.7-6.1-1,6.2,0.1-0.3c0.3-1.9,0.6-3.9,1-5.8c0.9-4.8,2-9.6,3.4-14.3
		c0.6-2.2,1.3-4.5,2.1-6.7c0.3-1,0.7-2,1.1-3c1.8-5.3-2.5,5.1-0.1,0.1c2.1-4.4,4.3-8.6,6.9-12.7c1.2-1.9,2.4-3.8,3.7-5.6
		c0.7-1,1.4-2,2.2-3c1.5-2.1,3.2-2.2-0.7,0.8c1.5-1.1,2.6-3.2,3.8-4.6c1.9-2.3,4-4.5,6-6.6c3.1-3.2,6.4-6.3,9.8-9.2
		c1.7-1.5,3.5-2.9,5.2-4.3c2.7-2.2-5.1,3.7-0.8,0.7c1.2-0.9,2.4-1.8,3.7-2.6c7.8-5.5,16.1-10.3,24.7-14.5c2-1,4.1-1.9,6.2-2.9
		c3.2-1.5-5.9,2.3-1,0.4c0.9-0.4,1.9-0.8,2.8-1.1c4.7-1.8,9.5-3.5,14.4-4.9c9.2-2.8,18.6-4.8,28-6.3c4-0.6-1.1,0.1-1.5,0.2
		c1.5-0.5,3.7-0.4,5.3-0.6c2.4-0.2,4.7-0.4,7.1-0.6c5.9-0.4,11.9-0.5,17.8-0.4c5.3,0.1,10.7,0.4,16,0.8c3,0.3,5.9,0.6,8.9,0.9
		c4.6,0.5-0.6-0.2-1.3-0.2c1.7,0,3.6,0.5,5.3,0.8c11.2,1.8,22.3,4.4,33.2,7.6c5.5,1.6,10.9,3.4,16.2,5.3c2.5,0.9,5.1,1.8,7.6,2.8
		c1.1,0.4,2.2,0.9,3.4,1.3c0.6,0.2,7.3,3,3.7,1.5c-3.7-1.6,1.7,0.8,2,0.9c1.1,0.5,2.2,1,3.3,1.5c2.5,1.1,4.9,2.3,7.3,3.4
		c4.8,2.3,9.6,4.8,14.4,7.4c9.1,5,17.7,10.6,26.1,16.6c1.2,0.9,3.1,3-1.2-1c0.8,0.7,1.7,1.3,2.5,2c2,1.7,4,3.4,6,5.1
		c3.9,3.5,7.6,7.2,11,11.1c0.6,0.6,3.5,4.9,4,4.8c-0.7,0.2-3.4-4.6-0.5-0.7c0.8,1.1,1.5,2.1,2.3,3.2c3,4.5,5.7,9.1,8.1,14
		c0.5,1,1,2.1,1.4,3.1c2.4,5.2-1.4-3.9-0.2-0.4c0.8,2.4,1.8,4.8,2.6,7.2c1.8,5.4,3.2,11,4.4,16.6c1.1,5.1,1.7,10.2,2.6,15.3
		c-1.4-7.3,0.2,2,0.4,3.8c0.3,2.9,0.6,5.8,0.8,8.7c2,24.2,3.3,48.5,4.8,72.7c1.6,25.5,3.3,50.9,4.9,76.4c0.8,11.9,1.4,23.8,0.8,35.7
		c-0.1,2.8-0.4,5.6-0.6,8.4c-0.5,6.1,0.8-3.9,0.1-0.1c-0.3,1.5-0.5,3.1-0.8,4.6c-1,5-2.3,9.9-4.1,14.7c-0.6,1.7-2.4,4.6,0.5-1
		c-0.5,0.9-0.8,1.8-1.2,2.7c-1.1,2.2-2.3,4.4-3.5,6.6c-1,1.7-2.2,3.3-3.3,5c-2.9,4.4,3.8-4.2,0.2-0.3c-1,1.1-1.9,2.2-3,3.3
		c-1.4,1.4-2.8,2.7-4.3,4c-3.7,3.4,3.8-2.5,1-0.7c-1,0.6-2,1.4-3.1,2c-0.8,0.5-1.7,1-2.5,1.4c-0.8,0.4-4.8,1.6-1.2,0.7
		c4.1-1.1-1.2,0.3-1.7,0.5c-1.6,0.5-3.3,0.9-4.9,1.3c-1,0.2-2.4,0.3-3.3,0.6c4.7-1.9,3.3-0.4,0.7-0.2c-2.6,0.2-5.1,0.2-7.7,0.1
		c-1.1,0-2.3-0.1-3.4-0.2c-0.5,0-6.1-0.8-1.9-0.1c4.3,0.6-1.4-0.3-1.9-0.4c-1.7-0.3-3.4-0.7-5.1-1.1c-9.8-2.3-19.3-5.6-28.6-9.4
		c-3.8-1.5,1.7,0.7,2,0.9c-1-0.5-2.2-0.9-3.2-1.4c-1.9-0.9-3.8-1.7-5.7-2.7c-4.2-2-8.4-4.2-12.4-6.4c-7.8-4.3-15.3-9-22.5-14
		c-1.9-1.3-3.8-2.7-5.7-4.1c-0.8-0.6-1.5-1.1-2.2-1.7c-3.2-2.4,1.4,1.1,1.7,1.3c-3.4-3.1-7.3-5.9-10.8-8.9
		c-6.9-6-13.4-12.3-19.7-18.9c-2.9-3.1-5.7-6.2-8.4-9.4c-1.4-1.6-2.7-3.2-4.1-4.8c-0.7-0.9-1.5-1.8-2.2-2.7
		c-0.5-0.7-3.8-4.8-1.1-1.4c2.7,3.5-1.6-2.2-2.3-3.1c-1.4-1.9-2.7-3.8-4.1-5.7c-2.5-3.7-5-7.4-7.4-11.1c-4.9-7.7-9.4-15.7-13.5-23.9
		c-1.9-3.8-3.7-7.6-5.4-11.4c-0.4-0.9-0.8-1.7-1.1-2.6c-2-4.6,1.8,4.5,0.6,1.4c-1-2.4-1.9-4.8-2.9-7.2
		c-6.4-16.6-11.2-33.8-14.2-51.2c-0.4-2.1-0.7-4.1-1-6.2c-0.3-1.8-0.4-5.6,0.2,1.7c-0.1-0.9-0.2-1.9-0.3-2.8
		c-0.6-4.6-1-9.3-1.3-13.9c-0.6-8.8-0.7-17.7-0.3-26.6c0.2-4.2,0.5-8.4,0.9-12.6c0.2-2.3,0.5-4.7,0.8-7c-0.8,8.5,0,0.2,0.3-1.8
		c1.1-6.8,1.1-12.9-2.5-19c-3-5.1-8.9-10-14.8-11.4C1266.9,277,1250.5,283.3,1248.4,296.9L1248.4,296.9z"/>
</g>
<path class="st3" d="M914.1,414.8c-18.1-1.3-35,9.5-47.8,22.4c-17.5,17.6-30.4,40.1-34,64.6c-3.6,24.5,2.7,50.8,19.1,69.3
	c17,19.2,44.3,28.6,69.5,24c25.2-4.6,47.5-23.1,56.6-47c4.2-11,5.8-22.9,6.5-34.7c1.3-22-0.5-45-11-64.4
	c-10.5-19.4-31.3-34.4-53.3-32.9"/>
<path class="st3" d="M432.8,385.8c-18.1-1.3-35,9.5-47.8,22.4c-17.5,17.6-30.4,40.1-34,64.6c-3.6,24.5,2.7,50.8,19.1,69.3
	c17,19.2,54.3,27.6,79.5,23s37.5-22.1,46.6-46c4.2-11,5.8-22.9,6.5-34.7c1.3-22-0.5-45-11-64.4c-10.5-19.4-31.3-34.4-53.3-32.9"/>
<g>
	<path class="st3" d="M702.7,1095.1c47-6.4,94.9-10.8,141.1-21.7c43-10.2,84.8-28.3,117-59.2c17.7-17,31-37.4,39.7-60.3
		c4.6-12.1-5.1-27.6-17.3-30.4c-14.1-3.2-25.4,4.3-30.4,17.3c-0.2,0.6-2.3,5.2-0.4,1.3c1.6-3.5,0.1-0.4-0.3,0.5
		c-0.9,2.1-1.9,4.1-3,6.1c-2.1,4-4.4,7.9-6.9,11.6c-1.3,1.9-2.6,3.7-3.9,5.5c-1.8,2.6,3.1-3.9,1.1-1.4c-0.8,1-1.6,2-2.4,2.9
		c-2.9,3.5-6,6.8-9.2,10c-3,3-6.2,5.9-9.5,8.7c-1.7,1.5-3.6,2.8-5.3,4.3c0.4-0.3,4.7-3.5,1.4-1.1c-1.2,0.9-2.5,1.8-3.7,2.7
		c-7.5,5.3-15.4,10-23.5,14.2c-3.8,2-7.7,3.8-11.7,5.6c-0.8,0.3-3.9,1.6-0.8,0.4c3.7-1.5-1.9,0.7-2.2,0.8c-2.8,1.1-5.7,2.2-8.6,3.2
		c-10.1,3.6-20.4,6.5-30.8,9.1c-21.5,5.2-43.4,8.6-65.3,11.7c-26.1,3.7-52.3,7.1-78.5,10.7c-5.7,0.8-12,6.7-14.8,11.4
		c-3.1,5.3-4.4,13.1-2.5,19c1.9,6,5.6,11.7,11.4,14.8C690,1095.9,695.7,1096,702.7,1095.1L702.7,1095.1z"/>
</g>
</svg>
